<?xml version="1.0" encoding="UTF-8"?>
<svg id="Layer_2" data-name="Layer 2" xmlns="http://www.w3.org/2000/svg" viewBox="0 0 8329.19 2212.51">
  <defs>
    <style>
      .cls-1 {
        fill: #fff;
      }

      .cls-2 {
        fill: #57fbdb;
      }
    </style>
  </defs>
  <g id="Layer_13" data-name="Layer 13">
    <g id="InView_White_Logo_V2" data-name="InView White Logo V2">
      <g id="V2">
        <path class="cls-2" d="M3068.48,736.38c0,2.4,2.53,3.97,4.68,2.89l89.67-44.83c36.52-18.26,59.59-55.59,59.59-96.42v-144.14h-153.93v282.5Z"/>
        <path class="cls-1" d="M3217.73,811.6l-89.67,44.83c-36.52,18.26-59.59,55.58-59.59,96.41v783.8h153.93v-922.16c0-2.4-2.53-3.97-4.68-2.89Z"/>
        <path class="cls-1" d="M4136.83,834.13c-52.54-28.7-114.85-43.08-186.91-43.08s-131.66,16.21-186.01,48.57c-54.37,32.38-96.2,77.29-125.52,134.68l-7.33-161.25h-139.27v923.59h153.92v-492.95c0-69.62,11.92-127.96,35.74-175,23.82-47.01,55.89-83.07,96.2-108.12,40.32-25.03,86.13-37.58,137.44-37.58,74.51,0,132.23,23.22,173.18,69.65,40.92,46.45,61.38,116.08,61.38,208.9v535.1h153.93v-551.58c0-89.16-14.66-162.79-43.98-220.82-29.32-58.02-70.27-101.39-122.77-130.11Z"/>
        <polygon class="cls-1" points="4923.7 1573.54 4518.7 453.88 4351.94 453.88 4833.88 1736.65 5013.47 1736.65 5495.43 453.88 5332.35 453.88 4923.7 1573.54"/>
        <path class="cls-2" d="M5683.23,899.48c0,2.4,2.53,3.97,4.68,2.89l89.67-44.83c36.52-18.26,59.59-55.59,59.59-96.42v-144.14h-153.93v282.5Z"/>
        <path class="cls-1" d="M5832.49,974.7l-89.67,44.83c-36.52,18.26-59.59,55.58-59.59,96.41v620.7h153.93v-759.05c0-2.4-2.53-3.97-4.68-2.89Z"/>
        <path class="cls-1" d="M6729.6,851.54c-63.54-40.32-140.51-60.49-230.92-60.49s-165.82,20.17-233.63,60.49c-67.81,40.32-120.34,96.51-157.59,168.59-37.29,72.11-55.9,157-55.9,254.73s18.93,181.12,56.8,253.8c37.85,72.7,90.38,129.19,157.59,169.5,67.18,40.32,143.54,60.47,229.06,60.47,72.09,0,135.29-12.82,189.69-38.47,54.32-25.66,99.86-60.17,136.51-103.54,36.63-43.35,62.91-93.14,78.78-149.35h-152.09c-19.54,50.11-50.4,89.5-92.55,118.2-42.15,28.72-95.58,43.08-160.34,43.08-51.29,0-99.25-12.84-143.84-38.49-44.61-25.66-80.64-64.15-108.13-115.46-24.31-45.4-37.83-100.37-40.63-164.91h721.42c1.2-17.1,1.83-32.36,1.83-45.81v-38.49c0-78.17-16.82-149.94-50.38-215.32-33.62-65.36-82.19-118.21-145.69-158.52ZM6203.79,1190.56c4.51-50.01,17.2-93.15,38.35-129.19,26.86-45.81,62.91-80.65,108.11-104.48,45.18-23.81,93.48-35.73,144.76-35.73,78.19,0,143.25,23.83,195.17,71.48,51.92,47.65,79.71,113.62,83.37,197.91h-569.77Z"/>
        <polygon class="cls-1" points="8173.41 813.05 7978.62 1539.3 7761.1 813.05 7587.01 813.05 7372.26 1543.19 7174.71 813.05 7020.77 813.05 7291.98 1736.65 7449.57 1736.65 7675.89 975.4 7902.2 1736.65 8059.81 1736.65 8329.19 813.05 8173.41 813.05"/>
      </g>
      <g id="Logo_Icon" data-name="Logo Icon">
        <path class="cls-1" d="M535.48,1.66L85.67,226.56C33.16,252.81,0,306.47,0,365.17v655.84c0,8.56,6.94,15.5,15.5,15.5h232.46c171.18,0,309.95-138.77,309.95-309.95V15.52c0-11.52-12.12-19.01-22.43-13.86Z"/>
        <path class="cls-1" d="M2209.19,1.66l-449.81,224.91c-52.5,26.25-85.67,79.91-85.67,138.61v655.84c0,8.56,6.94,15.5,15.5,15.5h232.46c171.18,0,309.95-138.77,309.95-309.95V15.52c0-11.52-12.12-19.01-22.43-13.86Z"/>
        <g>
          <path class="cls-1" d="M22.43,2210.85l518.34-259.17c10.5-5.25,17.13-15.98,17.13-27.72v-732.47c0-8.56-6.94-15.5-15.5-15.5h-232.46C138.77,1175.99,0,1314.76,0,1485.94v711.05c0,11.52,12.12,19.01,22.43,13.86Z"/>
          <path class="cls-1" d="M1696.14,2210.85l518.34-259.17c10.5-5.25,17.13-15.98,17.13-27.72v-732.47c0-8.56-6.94-15.5-15.5-15.5h-232.46c-171.18,0-309.95,138.77-309.95,309.95v711.05c0,11.52,12.12,19.01,22.43,13.86Z"/>
          <path class="cls-1" d="M859.29,1931.9l518.34-259.17c10.5-5.25,17.13-15.98,17.13-27.72v-453.51c0-8.56-6.94-15.5-15.5-15.5h-232.46c-171.18,0-309.95,138.77-309.95,309.95v432.1c0,11.52,12.12,19.01,22.43,13.86Z"/>
        </g>
        <path class="cls-1" d="M1372.34,280.61l-449.81,224.91c-52.5,26.25-85.67,79.91-85.67,138.61v376.89c0,8.56,6.94,15.5,15.5,15.5h232.46c171.18,0,309.95-138.77,309.95-309.95v-432.1c0-11.52-12.12-19.01-22.43-13.86Z"/>
      </g>
    </g>
  </g>
</svg>