<?xml version="1.0" encoding="UTF-8"?>
<svg id="Layer_2" data-name="Layer 2" xmlns="http://www.w3.org/2000/svg" viewBox="0 0 4054.78 1077.08">
  <defs>
    <style>
      .cls-1 {
        fill: #001bb7;
      }

      .cls-2 {
        fill: #00022d;
      }
    </style>
  </defs>
  <g id="Layer_8" data-name="Layer 8">
    <g id="InView_Logo_V2" data-name="InView Logo V2">
      <g id="V2">
        <path class="cls-1" d="M1493.78,358.48c0,1.17,1.23,1.93,2.28,1.41l43.65-21.83c17.78-8.89,29.01-27.06,29.01-46.94v-70.17h-74.94v137.52Z"/>
        <path class="cls-2" d="M1566.44,395.1l-43.65,21.83c-17.78,8.89-29.01,27.06-29.01,46.94v381.57h74.94v-448.92c0-1.17-1.23-1.93-2.28-1.41Z"/>
        <path class="cls-2" d="M2013.87,406.07c-25.58-13.97-55.91-20.97-90.99-20.97s-64.09,7.89-90.55,23.65c-26.47,15.76-46.83,37.62-61.11,65.56l-3.57-78.5h-67.8v449.62h74.93v-239.98c0-33.89,5.8-62.29,17.4-85.19,11.6-22.89,27.21-40.44,46.83-52.63,19.63-12.19,41.93-18.29,66.91-18.29,36.27,0,64.37,11.3,84.31,33.9,19.92,22.61,29.88,56.51,29.88,101.7v260.49h74.94v-268.52c0-43.41-7.14-79.25-21.41-107.5-14.27-28.25-34.21-49.36-59.77-63.34Z"/>
        <polygon class="cls-2" points="2396.93 766.03 2199.77 220.96 2118.59 220.96 2353.21 845.43 2440.63 845.43 2675.26 220.96 2595.87 220.96 2396.93 766.03"/>
        <path class="cls-1" d="M2766.69,437.88c0,1.17,1.23,1.93,2.28,1.41l43.65-21.83c17.78-8.89,29.01-27.06,29.01-46.94v-70.17h-74.94v137.52Z"/>
        <path class="cls-2" d="M2839.34,474.5l-43.65,21.83c-17.78,8.89-29.01,27.06-29.01,46.94v302.16h74.94v-369.52c0-1.17-1.23-1.93-2.28-1.41Z"/>
        <path class="cls-2" d="M3276.07,414.54c-30.93-19.63-68.4-29.45-112.41-29.45s-80.72,9.82-113.74,29.45c-33.01,19.63-58.58,46.98-76.72,82.07-18.15,35.1-27.21,76.43-27.21,124.01s9.21,88.17,27.65,123.55c18.43,35.39,44,62.89,76.72,82.52,32.71,19.63,69.88,29.44,111.51,29.44,35.09,0,65.86-6.24,92.35-18.73,26.44-12.49,48.61-29.29,66.46-50.41,17.83-21.1,30.62-45.34,38.35-72.71h-74.04c-9.51,24.39-24.54,43.57-45.06,57.54-20.52,13.98-46.53,20.97-78.06,20.97-24.97,0-48.31-6.25-70.02-18.74-21.72-12.49-39.25-31.23-52.64-56.21-11.83-22.1-18.41-48.86-19.78-80.28h351.2c.58-8.32.89-15.75.89-22.3v-18.74c0-38.06-8.19-73-24.53-104.82-16.37-31.82-40.01-57.54-70.92-77.17ZM3020.1,579.58c2.2-24.35,8.38-45.35,18.67-62.89,13.08-22.3,30.62-39.26,52.63-50.86,21.99-11.59,45.51-17.39,70.47-17.39,38.07,0,69.74,11.6,95.01,34.8,25.27,23.2,38.8,55.31,40.59,96.35h-277.37Z"/>
        <polygon class="cls-2" points="3978.94 395.81 3884.12 749.35 3778.22 395.81 3693.47 395.81 3588.93 751.25 3492.76 395.81 3417.82 395.81 3549.85 845.43 3626.56 845.43 3736.74 474.84 3846.91 845.43 3923.64 845.43 4054.78 395.81 3978.94 395.81"/>
      </g>
      <g id="Logo_Icon" data-name="Logo Icon">
        <path class="cls-1" d="M260.68.81L41.7,110.29C16.15,123.07,0,149.2,0,177.77v319.27c0,4.17,3.38,7.54,7.54,7.54h113.17c83.33,0,150.89-67.55,150.89-150.89V7.55c0-5.61-5.9-9.26-10.92-6.75Z"/>
        <path class="cls-1" d="M1075.47.81l-218.97,109.49c-25.56,12.78-41.7,38.9-41.7,67.48v319.27c0,4.17,3.38,7.54,7.54,7.54h113.17c83.33,0,150.89-67.55,150.89-150.89V7.55c0-5.61-5.9-9.26-10.92-6.75Z"/>
        <g>
          <path class="cls-2" d="M10.92,1076.28l252.34-126.17c5.11-2.56,8.34-7.78,8.34-13.5v-356.58c0-4.17-3.38-7.54-7.54-7.54h-113.17C67.55,572.49,0,640.04,0,723.38v346.15c0,5.61,5.9,9.26,10.92,6.75Z"/>
          <path class="cls-2" d="M825.71,1076.28l252.34-126.17c5.11-2.56,8.34-7.78,8.34-13.5v-356.58c0-4.17-3.38-7.54-7.54-7.54h-113.17c-83.33,0-150.89,67.55-150.89,150.89v346.15c0,5.61,5.9,9.26,10.92,6.75Z"/>
          <path class="cls-2" d="M418.31,940.48l252.34-126.17c5.11-2.56,8.34-7.78,8.34-13.5v-220.78c0-4.17-3.38-7.54-7.54-7.54h-113.17c-83.33,0-150.89,67.55-150.89,150.89v210.35c0,5.61,5.9,9.26,10.92,6.75Z"/>
        </g>
        <path class="cls-1" d="M668.07,136.6l-218.97,109.49c-25.56,12.78-41.7,38.9-41.7,67.48v183.48c0,4.17,3.38,7.54,7.54,7.54h113.17c83.33,0,150.89-67.55,150.89-150.89v-210.35c0-5.61-5.9-9.26-10.92-6.75Z"/>
      </g>
    </g>
  </g>
</svg>