<?xml version="1.0" encoding="UTF-8"?>
<svg id="Layer_2" data-name="Layer 2" xmlns="http://www.w3.org/2000/svg" viewBox="0 0 6426.2 2284.38">
  <defs>
    <style>
      .cls-1 {
        fill: #fff;
      }

      .cls-2 {
        fill: #57fbdb;
      }
    </style>
  </defs>
  <g id="Layer_13" data-name="Layer 13">
    <g id="InView_White_Logo_V4" data-name="InView White Logo V4">
      <g>
        <g>
          <g id="Workmark">
            <polygon class="cls-1" points="4410.33 2073.44 4269.29 1705.65 4187.83 1705.65 4187.83 2143.36 4246.8 2143.36 4246.8 1801.7 4382.97 2143.36 4437.69 2143.36 4573.86 1801.7 4573.86 2143.36 4632.22 2143.36 4632.22 1705.65 4551.37 1705.65 4410.33 2073.44"/>
            <path class="cls-1" d="M4798.02,1819.94c-68.7,0-131.92,29.18-134.36,105.17h57.15c2.43-44.38,40.73-56.53,77.81-56.53,42.55,0,66.26,13.98,66.26,49.24v22.49l-97.27,18.24c-73.55,13.98-115.51,42.55-115.51,98.48,0,60.18,43.77,93.62,114.29,93.62,37.69,0,73.56-11.55,100.92-46.2v38.91h53.5v-231.62c0-56.53-38.91-91.8-122.8-91.8ZM4864.89,2018.73c0,58.97-47.42,83.89-92.4,83.89s-61.4-18.85-61.4-47.42c0-34.04,25.53-43.16,65.66-51.67l88.15-17.63v32.83Z"/>
            <path class="cls-1" d="M5068.33,1834.55c-25.53,0-47.32,4.86-65.35,14.59-18.04,9.73-31.82,22.7-41.34,38.9-9.53,16.21-14.28,34.25-14.28,54.1s4.76,38.5,14.28,54.71c5.62,9.57,12.91,17.87,21.5,25.18l-52.2,53.23v13.98c5.67,5.27,12.25,10.44,19.76,15.5,5.48,3.71,11.91,7.08,19.24,10.14-3.75,2.71-7.28,5.49-10.43,8.4-10.94,10.14-18.95,20.76-24.01,31.92-5.08,11.14-7.6,21.98-7.6,32.52,0,21.07,5.97,38.9,17.93,53.49,11.95,14.59,28.47,25.42,49.54,32.52,21.06,7.09,45.59,10.64,73.55,10.64,30.79,0,56.12-5.07,75.98-15.2,19.85-10.14,34.65-23.1,44.38-38.91,9.72-15.8,14.59-32.43,14.59-49.84s-3.86-32.52-11.55-45.29c-7.7-12.77-19.97-22.99-36.78-30.7-16.82-7.69-38.6-12.77-65.35-15.2-19.05-1.22-34.35-2.63-45.89-4.26-11.55-1.61-20.67-3.44-27.36-5.47-6.69-2.03-12.06-4.26-16.11-6.69-1.25-.75-2.55-1.61-3.84-2.43l27.24-25.95c13.19,3.92,27.87,5.89,44.08,5.89,25.53,0,47.31-4.86,65.35-14.59,18.03-9.73,31.8-22.69,41.33-38.9,9.52-16.21,14.29-34.44,14.29-54.71,0-19.12-4.47-36.53-13.3-52.28h52.2v-48.02h-111.53c-14.27-4.83-30.35-7.29-48.34-7.29ZM5023.23,2129.22c15.14,2.66,32.91,4.77,53.61,6.24,27.15,1.62,45.38,6.69,54.71,15.2,9.32,8.51,13.98,19.04,13.98,31.61,0,10.94-3.14,20.36-9.42,28.27-6.29,7.9-15.2,14.18-26.75,18.84-11.55,4.65-25.03,6.99-40.42,6.99s-30-2.03-42.55-6.08c-12.56-4.05-22.49-10.13-29.79-18.23-7.29-8.11-10.94-18.23-10.94-30.39,0-9.73,3.44-19.86,10.34-30.39,5.27-8.06,14.37-15.4,27.23-22.04ZM5133.38,1942.76c0,19.05-5.88,33.64-17.63,43.76-11.76,10.14-27.57,15.2-47.41,15.2s-35.16-5.06-47.11-15.2c-11.96-10.12-17.93-24.71-17.93-43.76s5.97-33.63,17.93-43.77c11.95-10.13,27.66-15.2,47.11-15.2s35.65,5.07,47.41,15.2c11.75,10.13,17.63,24.72,17.63,43.77Z"/>
            <path class="cls-1" d="M6328.05,1986.51c0-96.66-58.36-166.57-149.55-166.57s-150.15,70.52-150.15,165.36,58.36,165.35,150.15,165.35c70.52,0,123.41-40.73,143.47-103.35h-58.36c-14.59,33.44-44.99,53.5-85.11,53.5-53.5,0-84.5-38.91-89.97-96.05h239.53v-18.24ZM6089.13,1956.72c7.91-52.28,38.3-86.93,89.37-86.93s80.85,34.65,89.37,86.93h-178.73Z"/>
            <path class="cls-1" d="M6045.26,1875.9v-48.6h-83.95v-97.35l-57.72,28.86v68.49h-107.01l-87.54,250.34-87.54-250.34h-60.48c0-1.1.14-2.07.14-3.04,0-66.97-48.74-118.61-152.71-118.61h-166.52v437.71h184.89c103.84,0,152.58-51.64,152.58-124.69,0-47.91-22.51-85.06-70.01-103.84,32.31-18.23,49.29-46.81,51.5-82.57l118.47,311.64-12.84,34.1c-9.67,27.34-16.98,37.7-46.12,37.7h-48.74v49.29h68.21c49.71,0,66.14-31.62,81.33-73.6l119.16-315.51h63.24v193.31c0,52.19,23.06,74.15,77.74,74.15h63.93v-48.6h-51.78c-23.06,0-32.17-9.8-32.17-32.31v-186.54h83.95ZM5302.68,1759.09h108.25c63.24,0,90.58,26.79,90.58,66.97s-27.34,67.38-90.58,67.38h-108.25v-134.35ZM5518.49,2018.12c0,45.01-27.34,71.8-90.58,71.8h-125.24v-143.46h125.24c63.24,0,90.58,26.65,90.58,71.66Z"/>
          </g>
          <g id="by">
            <path class="cls-1" d="M3417.21,1769.29h38.52v144.34c19.02-29.79,49.33-47.77,90.42-47.77,79.63,0,123.29,60.1,123.29,139.72s-43.66,139.73-123.29,139.73c-42.11,0-72.94-19.01-91.96-50.34v44.17h-36.97v-369.86ZM3542.03,2110.38c58.06,0,86.82-44.69,86.82-104.8s-28.76-104.78-86.82-104.78-87.32,44.69-87.32,104.78,28.76,104.8,87.32,104.8Z"/>
            <path class="cls-1" d="M3692.26,2207.98h39.56c25.16,0,31.33-10.27,40.07-33.39l13.36-35.96-102.22-266.61h42.11l80.13,220.38,80.66-220.38h42.14l-119.7,312.33c-12.33,32.36-23.64,57.53-62.68,57.53h-53.42v-33.9Z"/>
          </g>
        </g>
        <g id="V2">
          <path class="cls-2" d="M2367.42,568.13c0,1.85,1.95,3.06,3.61,2.23l69.18-34.59c28.18-14.09,45.97-42.89,45.97-74.39v-111.21h-118.76v217.95Z"/>
          <path class="cls-1" d="M2482.57,626.17l-69.18,34.59c-28.18,14.09-45.97,42.88-45.97,74.39v604.72h118.76v-711.47c0-1.85-1.95-3.06-3.61-2.23Z"/>
          <path class="cls-1" d="M3191.68,643.55c-40.54-22.14-88.61-33.23-144.21-33.23s-101.58,12.51-143.51,37.47c-41.95,24.98-74.22,59.63-96.84,103.91l-5.65-124.41h-107.45v712.58h118.76v-380.32c0-53.72,9.19-98.73,27.57-135.02,18.38-36.27,43.12-64.09,74.22-83.42,31.11-19.31,66.45-28.99,106.04-28.99,57.49,0,102.02,17.92,133.61,53.73,31.57,35.84,47.36,89.56,47.36,161.18v412.84h118.76v-425.56c0-68.79-11.31-125.59-33.93-170.37-22.62-44.77-54.21-78.23-94.72-100.38Z"/>
          <polygon class="cls-1" points="3798.77 1214.03 3486.3 350.18 3357.64 350.18 3729.47 1339.87 3868.03 1339.87 4239.88 350.18 4114.05 350.18 3798.77 1214.03"/>
          <path class="cls-2" d="M4384.77,693.97c0,1.85,1.95,3.06,3.61,2.23l69.18-34.59c28.18-14.09,45.97-42.89,45.97-74.39v-111.21h-118.76v217.95Z"/>
          <path class="cls-1" d="M4499.93,752.01l-69.18,34.59c-28.18,14.09-45.97,42.88-45.97,74.39v478.89h118.76v-585.63c0-1.85-1.95-3.06-3.61-2.23Z"/>
          <path class="cls-1" d="M5192.07,656.99c-49.02-31.11-108.41-46.67-178.16-46.67s-127.93,15.56-180.25,46.67c-52.32,31.11-92.85,74.46-121.58,130.07-28.77,55.63-43.13,121.13-43.13,196.53s14.6,139.74,43.82,195.82c29.21,56.09,69.73,99.67,121.58,130.78,51.83,31.11,110.75,46.65,176.73,46.65,55.62,0,104.38-9.89,146.35-29.68,41.91-19.8,77.04-46.42,105.32-79.89,28.26-33.45,48.54-71.86,60.78-115.23h-117.34c-15.07,38.66-38.89,69.05-71.41,91.19-32.52,22.16-73.75,33.23-123.71,33.23-39.57,0-76.57-9.91-110.98-29.69-34.42-19.8-62.21-49.49-83.43-89.08-18.76-35.02-29.18-77.44-31.35-127.24h556.59c.93-13.19,1.41-24.97,1.41-35.35v-29.69c0-60.31-12.98-115.69-38.87-166.12-25.94-50.43-63.41-91.2-112.4-122.31ZM4786.39,918.55c3.48-38.59,13.27-71.87,29.59-99.67,20.73-35.35,48.54-62.22,83.41-80.61,34.86-18.37,72.12-27.57,111.69-27.57,60.33,0,110.52,18.39,150.58,55.15,40.06,36.77,61.5,87.66,64.32,152.7h-439.59Z"/>
          <polygon class="cls-1" points="6306.01 627.29 6155.73 1187.61 5987.9 627.29 5853.58 627.29 5687.91 1190.61 5535.49 627.29 5416.72 627.29 5625.96 1339.87 5747.55 1339.87 5922.16 752.55 6096.77 1339.87 6218.36 1339.87 6426.2 627.29 6306.01 627.29"/>
        </g>
      </g>
      <g id="Logo_Icon" data-name="Logo Icon">
        <path class="cls-1" d="M413.14,1.28L66.09,174.8C25.59,195.05,0,236.45,0,281.74v506c0,6.6,5.35,11.96,11.96,11.96h179.35c132.07,0,239.13-107.06,239.13-239.13V11.97c0-8.89-9.35-14.67-17.3-10.69Z"/>
        <path class="cls-1" d="M1704.45,1.28l-347.04,173.52c-40.51,20.25-66.09,61.66-66.09,106.94v506c0,6.6,5.35,11.96,11.96,11.96h179.35c132.07,0,239.13-107.06,239.13-239.13V11.97c0-8.89-9.35-14.67-17.3-10.69Z"/>
        <g>
          <path class="cls-1" d="M17.3,1705.73l399.92-199.96c8.1-4.05,13.22-12.33,13.22-21.39v-565.12c0-6.6-5.35-11.96-11.96-11.96h-179.35C107.06,907.31,0,1014.37,0,1146.44v548.59c0,8.89,9.35,14.67,17.3,10.69Z"/>
          <path class="cls-1" d="M1308.62,1705.73l399.92-199.96c8.1-4.05,13.22-12.33,13.22-21.39v-565.12c0-6.6-5.35-11.96-11.96-11.96h-179.35c-132.07,0-239.13,107.06-239.13,239.13v548.59c0,8.89,9.35,14.67,17.3,10.69Z"/>
          <path class="cls-1" d="M662.96,1490.51l399.92-199.96c8.1-4.05,13.22-12.33,13.22-21.39v-349.9c0-6.6-5.35-11.96-11.96-11.96h-179.35c-132.07,0-239.13,107.06-239.13,239.13v333.37c0,8.89,9.35,14.67,17.3,10.69Z"/>
        </g>
        <path class="cls-1" d="M1058.79,216.5l-347.04,173.52c-40.51,20.25-66.09,61.66-66.09,106.94v290.78c0,6.6,5.35,11.96,11.96,11.96h179.35c132.07,0,239.13-107.06,239.13-239.13V227.19c0-8.89-9.35-14.67-17.3-10.69Z"/>
      </g>
    </g>
  </g>
</svg>