<?xml version="1.0" encoding="UTF-8"?>
<svg id="Layer_2" data-name="Layer 2" xmlns="http://www.w3.org/2000/svg" viewBox="0 0 3960.56 1407.9">
  <defs>
    <style>
      .cls-1 {
        fill: #001bb7;
      }

      .cls-2 {
        fill: #00022d;
      }
    </style>
  </defs>
  <g id="Layer_8" data-name="Layer 8">
    <g id="InView_Logo_V4" data-name="InView Logo V4">
      <g>
        <g>
          <g id="Workmark">
            <polygon class="cls-2" points="2718.15 1277.89 2631.23 1051.22 2581.02 1051.22 2581.02 1320.98 2617.37 1320.98 2617.37 1110.42 2701.29 1320.98 2735.01 1320.98 2818.94 1110.42 2818.94 1320.98 2854.91 1320.98 2854.91 1051.22 2805.08 1051.22 2718.15 1277.89"/>
            <path class="cls-2" d="M2957.09,1121.66c-42.34,0-81.3,17.99-82.81,64.82h35.22c1.5-27.35,25.1-34.84,47.96-34.84,26.23,0,40.84,8.62,40.84,30.35v13.86l-59.95,11.24c-45.33,8.62-71.19,26.23-71.19,60.7,0,37.09,26.98,57.7,70.44,57.7,23.23,0,45.34-7.12,62.2-28.47v23.98h32.97v-142.75c0-34.84-23.98-56.58-75.68-56.58ZM2998.31,1244.17c0,36.34-29.23,51.7-56.95,51.7s-37.84-11.62-37.84-29.23c0-20.98,15.74-26.6,40.46-31.85l54.33-10.86v20.23Z"/>
            <path class="cls-2" d="M3123.69,1130.66c-15.74,0-29.17,3-40.27,8.99-11.12,6-19.61,13.99-25.48,23.98-5.87,9.99-8.8,21.11-8.8,33.35s2.93,23.73,8.8,33.72c3.46,5.9,7.96,11.02,13.25,15.52l-32.17,32.81v8.62c3.5,3.25,7.55,6.43,12.18,9.55,3.38,2.29,7.34,4.36,11.86,6.25-2.31,1.67-4.49,3.39-6.43,5.18-6.74,6.25-11.68,12.8-14.8,19.67-3.13,6.87-4.68,13.55-4.68,20.04,0,12.98,3.68,23.98,11.05,32.97,7.36,8.99,17.54,15.67,30.53,20.04,12.98,4.37,28.1,6.56,45.33,6.56,18.98,0,34.59-3.13,46.83-9.37,12.23-6.25,21.35-14.24,27.35-23.98,5.99-9.74,8.99-19.98,8.99-30.72s-2.38-20.04-7.12-27.91c-4.75-7.87-12.31-14.17-22.67-18.92-10.37-4.74-23.79-7.87-40.27-9.37-11.74-.75-21.17-1.62-28.28-2.62-7.12-.99-12.74-2.12-16.86-3.37-4.12-1.25-7.43-2.62-9.93-4.12-.77-.46-1.57-.99-2.36-1.5l16.79-16c8.13,2.41,17.18,3.63,27.17,3.63,15.73,0,29.16-3,40.27-8.99,11.11-5.99,19.6-13.98,25.47-23.98,5.87-9.99,8.81-21.23,8.81-33.72,0-11.78-2.75-22.52-8.2-32.22h32.17v-29.6h-68.74c-8.79-2.98-18.71-4.5-29.79-4.5ZM3095.89,1312.27c9.33,1.64,20.28,2.94,33.04,3.84,16.73,1,27.97,4.12,33.72,9.37,5.74,5.24,8.62,11.74,8.62,19.48,0,6.74-1.94,12.55-5.81,17.42-3.88,4.87-9.37,8.74-16.49,11.61-7.12,2.87-15.43,4.31-24.91,4.31s-18.49-1.25-26.23-3.75c-7.74-2.5-13.86-6.25-18.36-11.24-4.49-5-6.74-11.24-6.74-18.73,0-5.99,2.12-12.24,6.37-18.73,3.25-4.97,8.85-9.49,16.78-13.58ZM3163.78,1197.35c0,11.74-3.62,20.73-10.86,26.97-7.25,6.25-16.99,9.37-29.22,9.37s-21.67-3.12-29.04-9.37c-7.37-6.24-11.05-15.23-11.05-26.97s3.68-20.73,11.05-26.97c7.36-6.24,17.05-9.37,29.04-9.37s21.97,3.12,29.22,9.37c7.24,6.25,10.86,15.24,10.86,26.97Z"/>
            <path class="cls-2" d="M3900.07,1224.32c0-59.57-35.97-102.66-92.17-102.66s-92.54,43.46-92.54,101.91,35.97,101.91,92.54,101.91c43.46,0,76.06-25.1,88.42-63.69h-35.97c-8.99,20.61-27.73,32.97-52.46,32.97-32.97,0-52.08-23.98-55.45-59.2h147.62v-11.24ZM3752.82,1205.96c4.87-32.22,23.6-53.58,55.08-53.58s49.83,21.36,55.08,53.58h-110.15Z"/>
            <path class="cls-2" d="M3725.79,1156.14v-29.95h-51.74v-60l-35.57,17.79v42.21h-65.95l-53.95,154.29-53.95-154.29h-37.27c0-.68.09-1.28.09-1.87,0-41.27-30.04-73.1-94.12-73.1h-102.63v269.77h113.95c64,0,94.04-31.83,94.04-76.85,0-29.53-13.87-52.42-43.15-64,19.91-11.23,30.38-28.85,31.74-50.89l73.02,192.07-7.91,21.02c-5.96,16.85-10.47,23.23-28.42,23.23h-30.04v30.38h42.04c30.64,0,40.76-19.49,50.12-45.36l73.44-194.45h38.98v119.14c0,32.17,14.21,45.7,47.91,45.7h39.4v-29.96h-31.91c-14.21,0-19.83-6.04-19.83-19.91v-114.97h51.74ZM3268.12,1084.15h66.72c38.98,0,55.83,16.51,55.83,41.27s-16.85,41.53-55.83,41.53h-66.72v-82.8ZM3401.13,1243.8c0,27.74-16.85,44.25-55.83,44.25h-77.19v-88.42h77.19c38.98,0,55.83,16.42,55.83,44.17Z"/>
          </g>
          <g id="by">
            <path class="cls-2" d="M2106.08,1090.44h23.74v88.96c11.72-18.36,30.4-29.44,55.72-29.44,49.08,0,75.99,37.04,75.99,86.11s-26.91,86.12-75.99,86.12c-25.96,0-44.96-11.72-56.68-31.02v27.22h-22.79v-227.95ZM2183.01,1300.66c35.78,0,53.51-27.54,53.51-64.59s-17.72-64.58-53.51-64.58-53.82,27.54-53.82,64.58,17.72,64.59,53.82,64.59Z"/>
            <path class="cls-2" d="M2275.6,1360.81h24.38c15.51,0,19.31-6.33,24.69-20.58l8.23-22.16-63-164.31h25.96l49.39,135.82,49.71-135.82h25.97l-73.77,192.49c-7.6,19.95-14.57,35.46-38.63,35.46h-32.92v-20.89Z"/>
          </g>
        </g>
        <g id="V2">
          <path class="cls-1" d="M1459.07,350.15c0,1.14,1.2,1.89,2.23,1.38l42.64-21.32c17.36-8.68,28.33-26.43,28.33-45.85v-68.54h-73.2v134.33Z"/>
          <path class="cls-2" d="M1530.05,385.92l-42.64,21.32c-17.36,8.68-28.33,26.43-28.33,45.85v372.7h73.2v-438.49c0-1.14-1.2-1.89-2.23-1.38Z"/>
          <path class="cls-2" d="M1967.08,396.63c-24.98-13.65-54.61-20.48-88.88-20.48s-62.6,7.71-88.45,23.1c-25.85,15.4-45.75,36.75-59.69,64.04l-3.48-76.67h-66.22v439.17h73.19v-234.4c0-33.11,5.67-60.85,16.99-83.21,11.33-22.35,26.57-39.5,45.75-51.41,19.17-11.9,40.96-17.87,65.35-17.87,35.43,0,62.87,11.04,82.35,33.12,19.46,22.09,29.19,55.2,29.19,99.34v254.44h73.2v-262.28c0-42.4-6.97-77.41-20.91-105-13.94-27.59-33.41-48.21-58.38-61.87Z"/>
          <polygon class="cls-2" points="2341.24 748.23 2148.66 215.82 2069.37 215.82 2298.53 825.78 2383.92 825.78 2613.1 215.82 2535.55 215.82 2341.24 748.23"/>
          <path class="cls-1" d="M2702.4,427.71c0,1.14,1.2,1.89,2.23,1.38l42.64-21.32c17.36-8.68,28.33-26.43,28.33-45.85v-68.54h-73.2v134.33Z"/>
          <path class="cls-2" d="M2773.37,463.47l-42.64,21.32c-17.37,8.68-28.33,26.43-28.33,45.85v295.14h73.2v-360.93c0-1.14-1.2-1.89-2.22-1.38Z"/>
          <path class="cls-2" d="M3199.95,404.91c-30.21-19.17-66.81-28.76-109.8-28.76s-78.85,9.59-111.09,28.76c-32.25,19.17-57.22,45.89-74.93,80.16-17.73,34.29-26.58,74.65-26.58,121.12s9,86.13,27.01,120.68c18,34.57,42.98,61.43,74.93,80.6,31.95,19.17,68.26,28.75,108.92,28.75,34.28,0,64.33-6.1,90.2-18.29,25.83-12.2,47.48-28.61,64.91-49.23,17.42-20.61,29.91-44.29,37.46-71.02h-72.32c-9.29,23.83-23.97,42.56-44.01,56.2-20.04,13.66-45.45,20.48-76.24,20.48-24.39,0-47.19-6.11-68.4-18.3-21.21-12.2-38.34-30.5-51.42-54.9-11.56-21.59-17.99-47.73-19.32-78.42h343.04c.57-8.13.87-15.39.87-21.78v-18.3c0-37.17-8-71.3-23.96-102.38-15.99-31.08-39.08-56.21-69.28-75.38ZM2949.93,566.11c2.15-23.78,8.18-44.29,18.24-61.43,12.77-21.78,29.91-38.35,51.41-49.68,21.48-11.32,44.45-16.99,68.84-16.99,37.18,0,68.12,11.33,92.8,33.99,24.69,22.66,37.9,54.02,39.64,94.11h-270.93Z"/>
          <polygon class="cls-2" points="3886.49 386.61 3793.87 731.94 3690.43 386.61 3607.65 386.61 3505.54 733.79 3411.6 386.61 3338.4 386.61 3467.37 825.78 3542.3 825.78 3649.92 463.81 3757.53 825.78 3832.47 825.78 3960.56 386.61 3886.49 386.61"/>
        </g>
      </g>
      <g id="Logo_Icon" data-name="Logo Icon">
        <path class="cls-1" d="M254.62.79L40.74,107.73C15.77,120.21,0,145.73,0,173.64v311.86c0,4.07,3.3,7.37,7.37,7.37h110.54c81.4,0,147.38-65.98,147.38-147.38V7.38c0-5.48-5.76-9.04-10.66-6.59Z"/>
        <path class="cls-1" d="M1050.48.79l-213.89,106.94c-24.97,12.48-40.74,38-40.74,65.91v311.86c0,4.07,3.3,7.37,7.37,7.37h110.54c81.4,0,147.38-65.98,147.38-147.38V7.38c0-5.48-5.76-9.04-10.66-6.59Z"/>
        <g>
          <path class="cls-2" d="M10.66,1051.27l246.47-123.24c4.99-2.5,8.15-7.6,8.15-13.18v-348.29c0-4.07-3.3-7.37-7.37-7.37h-110.54C65.98,559.19,0,625.17,0,706.57v338.11c0,5.48,5.76,9.04,10.66,6.59Z"/>
          <path class="cls-2" d="M806.52,1051.27l246.47-123.24c4.99-2.5,8.15-7.6,8.15-13.18v-348.29c0-4.07-3.3-7.37-7.37-7.37h-110.54c-81.4,0-147.38,65.98-147.38,147.38v338.11c0,5.48,5.76,9.04,10.66,6.59Z"/>
          <path class="cls-2" d="M408.59,918.62l246.47-123.24c4.99-2.5,8.15-7.6,8.15-13.18v-215.65c0-4.07-3.3-7.37-7.37-7.37h-110.54c-81.4,0-147.38,65.98-147.38,147.38v205.46c0,5.48,5.76,9.04,10.66,6.59Z"/>
        </g>
        <path class="cls-1" d="M652.55,133.43l-213.89,106.94c-24.97,12.48-40.74,38-40.74,65.91v179.21c0,4.07,3.3,7.37,7.37,7.37h110.54c81.4,0,147.38-65.98,147.38-147.38v-205.46c0-5.48-5.76-9.04-10.66-6.59Z"/>
      </g>
    </g>
  </g>
</svg>